<?xml version="1.0" encoding="UTF-8"?>
<svg id="Layer_2" data-name="Layer 2" xmlns="http://www.w3.org/2000/svg" viewBox="0 0 445.07 52.71">
  <g id="Layer_1-2" data-name="Layer 1">
    <path d="M365.27,32.7c-4.43-1.24-7.45-1.27-12.17-1.2L13.6,36.68c-5.37.08-9.15-.39-13.6-3.32,9.2-1.91,17-2.36,26.63-2.59l355.5-8.33c8.6-.2,15.25-.64,23.45-1.29-3.3-2.26-6.19-3.43-9.59-4.25l-48.36-11.57c-1.9-.45-3.64-2.86-3.57-5.1,5.92-.36,11.95-.48,17.94.78l74.16,15.7c2.83.6,6.07,2.26,8.47,3.74,1.3.8-.57,4.65-2.04,5.2-7.14,2.69-13.62,4.63-21.1,6.29l-74.93,16.65c-5.23,1.16-34.5,8.47-33.64.24.95-1.83,5.17-3.49,7.53-4.12l44.81-12.03Z"/>
  </g>
</svg>