<?xml version="1.0" encoding="UTF-8"?>
<svg id="Layer_2" data-name="Layer 2" xmlns="http://www.w3.org/2000/svg" viewBox="0 0 123.86 124.3">
  <defs>
    <style>
      .cls-1 {
        fill: #231f20;
      }
    </style>
    <filter id="shadow" x="-50%" y="-50%" width="200%" height="200%">
      <feDropShadow dx="0" dy="16" stdDeviation="3" flood-opacity="0.5" flood-color="#000000"/>
    </filter>
  </defs>
  <g id="Layer_1-2" data-name="Layer 1">
    <g filter="url(#shadow)">
      <path class="cls-1" d="M88.74,118.2c1.19-.57,2.37-1.17,3.52-1.81L10.98,97.74c.76,1.08,1.56,2.13,2.38,3.17l75.37,17.3Z"/>
      <path class="cls-1" d="M.37,53.66c-.12.85-.22,1.7-.3,2.55l120.11,27.56c.3-.8.58-1.61.84-2.43L.37,53.66Z"/>
      <path class="cls-1" d="M92.38,7.97c-5.06-2.84-10.6-5.03-16.55-6.4S63.94-.24,58.15.11l34.23,7.85Z"/>
      <path class="cls-1" d="M3.05,82.04c.33.96.68,1.92,1.05,2.86l99.96,22.94c.75-.69,1.48-1.39,2.19-2.12L3.05,82.04Z"/>
      <path class="cls-1" d="M0,67.45c.08.9.17,1.79.28,2.68l113.64,26.08c.49-.75.96-1.52,1.42-2.29L0,67.45Z"/>
      <path class="cls-1" d="M35.12,6.09c-1.19.57-2.37,1.17-3.52,1.81l81.28,18.65c-.76-1.08-1.56-2.13-2.38-3.17L35.12,6.09Z"/>
      <path class="cls-1" d="M31.48,116.33c5.06,2.84,10.6,5.03,16.55,6.4s11.89,1.81,17.68,1.46l-34.23-7.85Z"/>
      <path class="cls-1" d="M9.93,28.08c-.49.75-.96,1.52-1.42,2.29l115.35,26.47c-.08-.9-.17-1.79-.28-2.68L9.93,28.08Z"/>
      <path class="cls-1" d="M19.8,16.46c-.75.69-1.48,1.39-2.19,2.12l103.2,23.68c-.33-.96-.68-1.92-1.05-2.86L19.8,16.46Z"/>
      <path class="cls-1" d="M3.67,40.53c-.3.8-.58,1.61-.84,2.43l120.65,27.69c.12-.85.22-1.7.3-2.55L3.67,40.53Z"/>
    </g>
  </g>
</svg>