<?xml version="1.0" encoding="UTF-8"?>
<svg id="Layer_2" data-name="Layer 2" xmlns="http://www.w3.org/2000/svg" viewBox="0 0 361.92 27.99">
  <g id="Layer_1-2" data-name="Layer 1">
    <path d="M208.4,5.96c-10.49,2.7-22.52,21.99-36.16,13.33-5.33-3.38-10.01-7.55-14.44-12.04-2.47-2.5-5.2-3.21-8.44-1.84-7.21,3.03-13.78,6.98-20.3,11.42-9.69,6.61-23.35,14.02-33.69,4.73-4.21-3.78-8.16-9.21-11.54-9.61l-7.1,8.45c-5.64,6.72-14.11,9.09-22.65,6.65C34.24,21.4,29.8,6.01,15.9,12.64c-4.21,2.01-8.27,4.54-11.04,7.94l.26,2.45c.11,1.03-2.72,1.37-4.25,1.32-3-.1,1.6-9.98,16.15-15.58,9.25-3.56,14.97.95,22.99,6.54,9.97,6.94,23.53,13.08,33.11,1.98,2.33-2.7,4.61-5.69,7.13-8.25,3.15-3.2,8.47-1.07,11.07,1.59l6.51,6.65c8.5,8.68,21.42.36,29.61-5.12,6.61-4.42,13.19-8.31,20.57-11.19,12.08-4.71,13.99,8.89,28.64,15.29,6.29,2.75,16.43-5.97,21.43-10.01,6.81-5.51,14.85-6.55,22.64-2.12,7.57,4.3,15.43,7.34,24.32,8.1,23.58,2.04,28.27-14.96,40.21-7.1,28.75,18.92,27.41,3.43,51.43,1.33l10.05-.88,12.87-.95c.85-.06,2.28,1.62,2.31,2.45.05,1.1-1.17,2.57-2.48,2.61-8.95.24-17.34.64-26.11,1.86-4.3.6-8.41,2.15-12.16,4.19-14.87,8.09-26.51,1.09-38.47-6.84-2.01-1.33-4.38-1.49-6.49-.43l-8.53,4.28c-7.68,3.85-15.88,4.74-24.32,3.68-19.82-2.5-25.78-12.83-34.97-10.47Z"/>
  </g>
</svg>