<?xml version="1.0" encoding="UTF-8"?>
<svg id="Layer_2" data-name="Layer 2" xmlns="http://www.w3.org/2000/svg" viewBox="0 0 149.75 41.22">
  <g id="Layer_1-2" data-name="Layer 1">
    <g>
      <path d="M149.54,10.23c-6.61,2.53-9.26-8.13-16.27-8.35-7.62-.24-8.49,9.11-16.85,9.03-8.43-.08-9.45-8.83-16.16-9.02-7.55-.22-8.86,8.51-16.05,9.02-8.76.62-10.27-8.56-16.91-9.02-7.6-.52-8.87,8.77-16.97,9.09S40.93,1.89,33.29,1.87c-2.38,0-5.67,2.07-7.37,4.23-4.21,5.34-11.04,6.73-15.98,1.77C7.08,4.99,3.96,2.93.05.63,7.38-1.63,9.05,8.64,16.35,9.05,24.12,9.49,24.81.16,33.35.04c8.05-.12,9.45,8.41,16.03,8.97C57.33,9.67,58.03.19,66.33,0c8.73-.19,9.54,9.17,16.98,9.11,6.96-.05,8.02-8.62,15.99-9.1,8.42-.51,9.73,9.05,17.1,9.11,6.66.05,8.43-8.18,14.92-8.99,8.7-1.08,8.18,5.24,18.21,10.1Z"/>
      <path d="M149.75,25.84c-7.82,1.25-9.59-9.28-17.32-8.74-6.69.47-8.42,9.25-16.1,9.12s-9.46-8.92-16.02-9.15c-7.76-.28-8.59,8.97-17.04,9.09-7.67.11-9.35-8.62-15.97-9.11-7.69-.57-8.87,8.99-16.99,9.12-8.57.13-9.34-9.17-17.03-9.14-6.46.02-8.19,8.09-15.05,9.04-7.93,1.1-8.93-6.19-18.03-10.19,6.73-2.56,8.92,7.95,16.19,8.36,7.82.44,8.69-8.97,16.93-9.1,7.82-.12,9.24,8.48,16.08,9.07,7.78.67,9.07-8.99,16.91-9.05,8.47-.07,9.17,8.24,16.12,9.06,7.38.87,9.28-8.86,16.85-9.08,8.57-.24,10.19,9.21,16.96,9.15,7.12-.07,8.45-8.66,16.07-9.15,7.25-.47,8.14,5.35,17.44,10.7Z"/>
      <path d="M149.73,40.88c-8.33.95-9.43-9.46-17.41-8.8-6.74.56-8.07,9.21-16.01,9.14-7.53-.07-9.83-9.09-15.91-9.24-7.81-.2-8.9,9.13-17.11,9.16-7.86.03-9.3-8.73-15.95-9.05-8.19-.4-8.59,8.79-17.05,9.08-7.94.27-9.79-9.25-16.92-9.13-6.75.11-8.76,8.45-15.17,9.06-8.38.79-8.7-6.15-18.2-10.29,6.63-2.63,9.48,8.06,16.32,8.44,7.98.45,8.69-9.05,17-9.11,7.96-.06,9.33,8.57,16.08,9.1,7.7.61,9.07-8.92,16.89-9.09,8.91-.18,9.15,9.08,17.04,9.1,6.84.02,8.39-8.77,16.02-9.1,8.36-.36,9.91,8.98,16.98,9.1s8.32-8.71,16.04-9.12c7.14-.38,8.24,5.43,17.36,10.75Z"/>
    </g>
  </g>
</svg>