<?xml version="1.0" encoding="UTF-8"?>
<svg id="Layer_2" data-name="Layer 2" xmlns="http://www.w3.org/2000/svg" viewBox="0 0 91.88 91.84">
  <defs>
    <style>
      .cls-1 {
        fill: #E3E2E2;
      }
    </style>
  </defs>
  <g id="Layer_1-2" data-name="Layer 1">
    <g>
      <path d="M68.16,91.84l-22.25-21.97-21.99,21.88L0,67.91l21.94-22.12L0,23.89,23.73,0l22.07,21.84L68.02.09l23.86,23.91-22.06,21.98,21.99,21.96-23.66,23.92ZM68.16,87.65l19.53-19.74-21.81-22.07,21.88-22.04-19.83-19.73-22.01,21.91L23.87,4.11,4.16,23.77l21.91,22.16-21.98,22.06,19.94,19.62,21.88-21.79,22.26,21.84Z"/>
      <polygon class="cls-1" points="68.16 87.65 45.9 65.82 24.02 87.61 4.08 67.98 26.07 45.92 4.16 23.77 23.87 4.11 45.92 25.99 67.93 4.08 87.76 23.81 65.88 45.85 87.69 67.92 68.16 87.65"/>
    </g>
  </g>
</svg>